HIERARCHY
ROOT Hips
{
	OFFSET 0.000000 0.000000 0.000000 
	CHANNELS 6 Xposition Yposition Zposition Zrotation Yrotation Xrotation
	JOINT LeftUpLeg
	{
		OFFSET 1.363060 -1.794630 0.839290 
		CHANNELS 3 Zrotation Yrotation Xrotation
		JOINT LeftLeg
		{
			OFFSET 2.448110 -6.726130 0.000000 
			CHANNELS 3 Zrotation Yrotation Xrotation
			JOINT LeftFoot
			{
				OFFSET 2.562200 -7.039590 0.000000 
				CHANNELS 3 Zrotation Yrotation Xrotation
				JOINT LeftToeBase
				{
					OFFSET 0.157640 -0.433110 2.322550 
					CHANNELS 3 Zrotation Yrotation Xrotation
					End Site
					{
						OFFSET 0.000000 0.000000 0.000000 
					}
				}
			}
		}
	}
	JOINT RightUpLeg
	{
		OFFSET -1.305520 -1.794630 0.839290 
		CHANNELS 3 Zrotation Yrotation Xrotation
		JOINT RightLeg
		{
			OFFSET -2.542530 -6.985550 0.000000 
			CHANNELS 3 Zrotation Yrotation Xrotation
			JOINT RightFoot
			{
				OFFSET -2.568260 -7.056230 0.000000 
				CHANNELS 3 Zrotation Yrotation Xrotation
				JOINT RightToeBase
				{
					OFFSET -0.164730 -0.452590 2.363150 
					CHANNELS 3 Zrotation Yrotation Xrotation
					End Site
					{
						OFFSET 0.000000 0.000000 0.000000 
					}
				}
			}
		}
	}
	JOINT Spine
	{
		OFFSET 0.028270 2.035590 -0.193380 
		CHANNELS 3 Zrotation Yrotation Xrotation
		JOINT Spine1
		{
			OFFSET 0.056720 2.048850 -0.042750 
			CHANNELS 3 Zrotation Yrotation Xrotation
			JOINT Neck1
			{
				OFFSET -0.054170 1.746240 0.172020 
				CHANNELS 3 Zrotation Yrotation Xrotation
				JOINT Head
				{
					OFFSET 0.104070 1.761360 -0.123970 
					CHANNELS 3 Zrotation Yrotation Xrotation
					End Site
					{
						OFFSET 0.000000 0.000000 0.000000 
					}
				}
			}
			JOINT LeftArm
			{
				OFFSET 3.362410 1.200890 -0.311210 
				CHANNELS 3 Zrotation Yrotation Xrotation
				JOINT LeftForeArm
				{
					OFFSET 4.983000 -0.000000 -0.000000 
					CHANNELS 3 Zrotation Yrotation Xrotation
					JOINT LeftHand
					{
						OFFSET 3.483560 -0.000000 -0.000000 
						CHANNELS 3 Zrotation Yrotation Xrotation
						JOINT LeftHandIndex1
						{
							OFFSET 0.715260 -0.000000 -0.000000 
							CHANNELS 3 Zrotation Yrotation Xrotation
							End Site
							{
								OFFSET 0.000000 0.000000 0.000000 
							}
						}
					}
				}
			}
			JOINT RightArm
			{
				OFFSET -3.136600 1.374050 -0.404650 
				CHANNELS 3 Zrotation Yrotation Xrotation
				JOINT RightForeArm
				{
					OFFSET -5.241900 -0.000000 -0.000000 
					CHANNELS 3 Zrotation Yrotation Xrotation
					JOINT RightHand
					{
						OFFSET -3.444170 -0.000000 -0.000000 
						CHANNELS 3 Zrotation Yrotation Xrotation
						JOINT RightHandIndex1
						{
							OFFSET -0.622530 -0.000000 -0.000000 
							CHANNELS 3 Zrotation Yrotation Xrotation
							End Site
							{
								OFFSET 0.000000 0.000000 0.000000 
							}
						}
					}
				}
			}
		}
	}
}
MOTION
Frames: 6
Frame Time: 0.041667
8.825787 17.771751 -8.077997 -0.748458 -30.180429 9.415165 -17.180922 -7.730264 -9.708643 0.582388 4.762862 19.603128 3.562976 -28.774667 5.799769 1.673600 8.150200 23.171400 21.229757 10.398666 -33.021173 -0.264736 -5.676460 20.519488 -0.961248 -0.021623 15.492611 -0.006500 -0.521900 1.434200 4.431486 -4.295250 12.870046 3.573554 -1.825625 -2.208873 13.095142 -28.275052 8.668976 2.953500 -13.786700 6.803900 -73.995307 27.873079 51.584635 47.166802 -49.356016 -23.190914 0.841847 -0.240519 12.588098 -7.125000 0.000000 0.000000 48.525972 -12.632065 81.243040 -56.551037 53.259407 -31.920907 0.012267 -0.052969 27.810823 7.125000 0.000000 0.000000 
8.800940 17.778878 -7.996526 -0.988425 -29.867677 9.383182 -17.158847 -7.908316 -9.092733 0.573945 4.751643 19.485600 3.736794 -27.912793 4.728111 1.343300 7.338000 20.720700 21.358971 10.332303 -32.639563 -0.303330 -5.710128 20.490372 -0.464567 -1.640472 14.967670 -0.004400 0.426500 -1.171900 4.641333 -4.181351 12.989694 3.299003 -1.761207 -2.199407 13.093578 -27.665717 9.386937 2.989400 -13.442000 7.048500 -74.147837 27.834510 51.481067 46.954373 -49.262177 -23.023434 0.836850 -0.246770 12.843659 -7.125000 0.000000 0.000000 48.488994 -12.814293 81.121584 -56.710716 53.306682 -32.056522 0.012028 -0.053380 27.923110 7.125000 0.000000 0.000000 
8.775301 17.784521 -7.937031 -1.036184 -29.294294 9.555292 -17.190179 -8.123015 -8.831696 0.546078 4.703645 19.349460 3.757228 -27.515999 4.675322 1.279500 7.168400 20.215300 21.337848 10.171445 -32.691155 -0.345640 -5.784550 20.517874 0.028206 -3.226930 14.504233 -0.023400 0.988300 -2.716700 5.019009 -4.173027 12.785518 3.246710 -1.735735 -2.282726 11.983938 -27.187247 10.948233 2.591400 -13.117000 7.444200 -74.264029 27.788732 51.600027 46.692322 -49.140115 -22.822613 0.834459 -0.249307 12.854673 -7.125000 0.000000 0.000000 48.355195 -13.031755 81.018542 -56.816533 53.346126 -32.149180 0.011477 -0.053585 27.870455 7.125000 0.000000 0.000000 
8.749859 17.794816 -7.896444 -0.798286 -28.545716 9.901640 -17.350503 -8.263060 -9.054123 0.524058 4.648586 19.273442 3.660428 -27.763599 5.352149 1.347300 7.348600 20.752300 21.000045 10.116277 -33.093415 -0.387712 -5.881864 20.586740 0.457248 -4.591497 14.114347 -0.025700 1.034600 -2.843900 5.239913 -4.225383 12.496393 3.381268 -1.743598 -2.300714 10.574809 -26.162427 11.414279 2.146300 -12.599200 7.312000 -74.281285 27.576275 51.758942 46.402127 -48.998603 -22.600280 0.837450 -0.246408 12.780814 -7.125000 0.000000 0.000000 48.334162 -13.137959 80.816022 -56.924364 53.385671 -32.241298 0.011151 -0.052536 27.755537 7.125000 0.000000 0.000000 
8.729665 17.804517 -7.827248 -0.807252 -28.153645 9.932694 -17.423444 -8.586016 -8.748513 0.489821 4.608064 19.255741 3.532861 -27.476495 6.477835 1.645100 8.084000 22.969400 20.869898 10.018658 -33.055844 -0.429410 -5.968639 20.771037 0.640589 -5.126453 13.796765 -0.013200 0.742700 -2.041200 5.276267 -4.103627 12.661684 3.217032 -1.679430 -2.244866 10.226335 -25.458277 11.969638 2.024800 -12.214400 7.447500 -74.373281 27.205700 51.758639 46.019221 -48.821435 -22.301329 0.835987 -0.243211 12.731264 -7.125000 0.000000 0.000000 48.386961 -13.248661 80.487891 -57.111179 53.441053 -32.398845 0.011498 -0.052213 27.909289 7.125000 0.000000 0.000000 
8.707986 17.810358 -7.784879 -1.039147 -27.443224 10.489307 -17.122096 -8.864447 -9.038513 0.458919 4.591388 19.266701 3.396106 -27.721565 7.742664 1.983400 8.831300 25.269100 20.990525 9.962579 -33.516679 -0.474097 -6.061397 20.995854 0.721177 -5.354058 13.580216 -0.009600 0.631500 -1.735500 5.748996 -4.141613 12.361153 3.099375 -1.684211 -2.292173 10.432520 -24.867245 12.754398 2.101400 -11.869000 7.773200 -74.514158 26.960881 51.647063 45.748825 -48.695592 -22.086066 0.829364 -0.237744 12.656139 -7.125000 0.000000 0.000000 48.428957 -13.408129 80.101170 -57.612936 53.596380 -32.824880 0.011985 -0.050017 27.128650 7.125000 0.000000 0.000000 
